Coordinates
version=1
nRows=11
nColumns=40
inDegrees=yes

Units are S.I. units (second, meters, Newtons, ...)
Angles are in degrees.

endheader
time	pelvis_tilt	pelvis_list	pelvis_rotation	pelvis_tx	pelvis_ty	pelvis_tz	hip_flexion_r	hip_adduction_r	hip_rotation_r	knee_angle_r	knee_angle_r_beta	ankle_angle_r	subtalar_angle_r	mtp_angle_r	hip_flexion_l	hip_adduction_l	hip_rotation_l	knee_angle_l	knee_angle_l_beta	ankle_angle_l	subtalar_angle_l	mtp_angle_l	lumbar_extension	lumbar_bending	lumbar_rotation	arm_flex_r	arm_add_r	arm_rot_r	elbow_flex_r	pro_sup_r	wrist_flex_r	wrist_dev_r	arm_flex_l	arm_add_l	arm_rot_l	elbow_flex_l	pro_sup_l	wrist_flex_l	wrist_dev_l
      1.11000000	      3.36596463	     -2.46112443	      5.40515236	     -0.05284154	      0.93725737	     -1.44898799	     21.01130330	     -2.31310240	    -19.10304085	    -25.39439868	     -0.44321587	     -4.29650605	     -7.82860505	      2.03639775	    -17.19389044	     10.31998659	     17.97910931	    -24.98720422	     -0.43610898	      0.09444722	     -4.10050042	    -13.51422765	     -7.14151769	      3.01150447	     -8.26109650	     -5.57271876	     -9.45304586	    -28.68812176	     14.88347577	     89.95437384	      0.00000000	      0.00000000	      9.83636525	     15.37825159	      8.23612981	     31.81803054	     89.95437384	      0.00000000	      0.00000000
      1.12000000	      3.48800345	     -3.71012983	      5.49075739	     -0.04153474	      0.93850925	     -1.44508161	     19.96577568	     -0.25164363	    -18.62777781	    -24.72546688	     -0.43154081	     -3.95863227	     -9.45359637	      1.99100935	    -16.40977883	     12.62444607	     18.98374737	    -27.66052898	     -0.48276730	     -1.89818112	     -3.75263599	    -13.06286279	     -6.89951900	      4.24785211	     -8.20333133	     -5.37651619	     -9.52838688	    -28.63029455	     14.47789025	     89.95437384	      0.00000000	      0.00000000	      9.07743215	     14.89468451	      9.24948577	     31.26416203	     89.95437384	      0.00000000	      0.00000000
      1.13000000	      3.46436456	     -4.03913904	      5.30612798	     -0.03098024	      0.93967282	     -1.44154743	     19.29921236	      0.52952127	    -18.40930545	    -24.73308641	     -0.43167379	     -3.00338308	     -9.18576421	      1.79992104	    -15.47331431	     13.47479718	     18.85120401	    -30.07894782	     -0.52497667	     -3.97979311	     -2.05623284	    -12.25315659	     -6.69450422	      4.46277492	     -7.82842221	     -5.27524092	     -9.51727036	    -28.34101689	     14.28817305	     89.95437384	      0.00000000	      0.00000000	      8.32353054	     14.64865016	      9.40817804	     30.97701802	     89.95437384	      0.00000000	      0.00000000
      1.14000000	      3.29582786	     -4.77408563	      5.33721183	     -0.02104058	      0.94075560	     -1.43794457	     18.60123847	      1.86144880	    -18.12468491	    -24.09843247	     -0.42059699	     -2.81997507	    -10.09653411	      2.10860213	    -13.93551950	     14.95701545	     18.59610717	    -33.04779069	     -0.57679276	     -5.88954356	     -0.84630702	    -11.51912426	     -6.34479865	      5.11576204	     -7.69283650	     -5.06476481	     -9.51666194	    -28.10980699	     14.15473811	     89.95437384	      0.00000000	      0.00000000	      7.61924008	     14.28274934	     10.09694886	     30.55174722	     89.95437384	      0.00000000	      0.00000000
      1.15000000	      3.25112950	     -4.95585553	      5.22043366	     -0.01134566	      0.94216666	     -1.43467929	     17.89436060	      2.45465400	    -17.85005901	    -23.91705520	     -0.41743136	     -2.00395888	     -9.81366328	      1.98849497	    -12.59903140	     15.57653529	     18.05942605	    -35.57467041	     -0.62089513	     -8.10748199	      0.87448737	    -10.72597907	     -6.23031539	      5.17384037	     -7.39951647	     -4.86174170	     -9.45604883	    -27.96015113	     14.08969284	     89.95437384	      0.00000000	      0.00000000	      6.94211764	     14.06062430	     10.27508408	     30.19657928	     89.95437384	      0.00000000	      0.00000000
      1.16000000	      2.58198816	     -5.43316126	      5.34870873	     -0.00267729	      0.94246441	     -1.43186302	     17.96898108	      3.23064608	    -17.78253099	    -23.61855938	     -0.41222163	     -1.84014637	    -10.11538178	      2.22836517	     -9.98787101	     16.43329273	     16.76295865	    -38.82950537	     -0.67770272	     -9.07075142	      3.15064462	    -10.15950380	     -5.45568793	      5.55455972	     -7.34861952	     -4.62320583	     -9.45594507	    -27.89967730	     14.07394506	     89.95437384	      0.00000000	      0.00000000	      6.30455833	     13.67398266	     10.81023596	     29.75438613	     89.95437384	      0.00000000	      0.00000000
      1.17000000	      2.16882393	     -5.63427859	      5.54327322	      0.00587679	      0.94317111	     -1.42940014	     17.76787889	      3.67181748	    -17.70521652	    -23.43475221	     -0.40901359	     -1.25911663	    -10.06769736	      2.25829908	     -7.67715019	     16.95123800	     15.56099522	    -41.79769179	     -0.72950734	     -9.50104029	      5.23947615	     -9.77746189	     -5.02222841	      5.66190852	     -7.33786485	     -4.41743286	     -9.39812390	    -27.88117118	     14.28601268	     89.95437384	      0.00000000	      0.00000000	      5.75043553	     13.38866211	     11.04216533	     29.24300133	     89.95437384	      0.00000000	      0.00000000
      1.18000000	      1.71486590	     -5.76331992	      5.70296155	      0.01428505	      0.94383533	     -1.42748803	     17.63641963	      3.97234053	    -17.61531110	    -23.34072202	     -0.40737245	     -0.67392868	    -10.02724182	      2.27317080	     -5.28277797	     17.19680571	     14.29602037	    -44.72834461	     -0.78065688	     -8.62914524	      7.42775153	     -9.56315778	     -4.54891377	      5.72803359	     -7.22508718	     -4.16189532	     -9.43411874	    -27.92932748	     14.39091373	     89.95437384	      0.00000000	      0.00000000	      5.22483870	     13.04774889	     11.19289496	     28.77406637	     89.95437384	      0.00000000	      0.00000000
      1.19000000	      0.89272583	     -5.71159996	      5.94923632	      0.02199845	      0.94385686	     -1.42581179	     18.00810023	      3.94373077	    -17.73286523	    -23.38434351	     -0.40813379	     -0.44543082	    -10.28311531	      2.55079133	     -2.26891870	     17.19078513	     13.17150697	    -47.73093845	     -0.83306203	     -7.35492921	      9.91183763	     -9.10557958	     -3.73189824	      5.55697118	     -7.23854071	     -3.97889440	     -9.40306770	    -28.02607214	     14.71015154	     89.95437384	      0.00000000	      0.00000000	      4.68206843	     12.76988135	     11.35008101	     28.27638816	     89.95437384	      0.00000000	      0.00000000
      1.20000000	      0.56993113	     -5.68934674	      6.27494892	      0.02997576	      0.94474240	     -1.42436543	     17.66381656	      4.02559213	    -17.85234543	    -23.17926317	     -0.40455446	      0.51567965	    -10.03846840	      5.12101510	      0.08684176	     17.19496868	     12.25017749	    -50.38539201	     -0.87939099	     -4.68149065	     11.35183625	     -2.70787727	     -3.46535981	      5.47481155	     -7.24526002	     -3.73182565	     -9.38409781	    -28.18153184	     15.06948008	     89.95437384	      0.00000000	      0.00000000	      4.22304257	     12.49129679	     11.42108460	     27.74032104	     89.95437384	      0.00000000	      0.00000000
      1.21000000	      0.60501585	     -5.69812067	      6.60467296	      0.03834109	      0.94622549	     -1.42302190	     16.77933244	      4.20800990	    -18.02107224	    -22.70594382	     -0.39629348	      1.01762885	     -9.76024735	      4.96349596	      1.83822036	     17.22948415	     11.52951023	    -52.42112760	     -0.91492127	     -3.49484929	     13.02799215	     -2.69935867	     -3.56253415	      5.45934893	     -7.15175704	     -3.53257243	     -9.39033292	    -28.16828799	     15.48284051	     89.95437384	      0.00000000	      0.00000000	      3.85705901	     12.24410165	     11.26709069	     27.07461267	     89.95437384	      0.00000000	      0.00000000
